<mxfile host="app.diagrams.net" modified="2022-03-02T08:44:12.666Z" agent="5.0 (Windows NT 10.0; Win64; x64) AppleWebKit/537.36 (KHTML, like Gecko) Chrome/98.0.4758.102 Safari/537.36" etag="oMLkcH06i7OByb-_je8c" version="16.6.4" type="github">
  <diagram id="EuzZxZnqJYDvGSDvsqgL" name="Page-1">
    <mxGraphModel dx="1422" dy="762" grid="1" gridSize="10" guides="1" tooltips="1" connect="1" arrows="1" fold="1" page="1" pageScale="1" pageWidth="827" pageHeight="1169" math="0" shadow="0">
      <root>
        <mxCell id="0" />
        <mxCell id="1" parent="0" />
        <mxCell id="-qspavT7v30yvVSXL8hS-9" value="" style="shape=table;startSize=0;container=1;collapsible=0;childLayout=tableLayout;rounded=0;sketch=0;" vertex="1" parent="1">
          <mxGeometry x="20" y="110" width="740" height="420" as="geometry" />
        </mxCell>
        <mxCell id="-qspavT7v30yvVSXL8hS-10" value="" style="shape=tableRow;horizontal=0;startSize=0;swimlaneHead=0;swimlaneBody=0;top=0;left=0;bottom=0;right=0;collapsible=0;dropTarget=0;fillColor=none;points=[[0,0.5],[1,0.5]];portConstraint=eastwest;rounded=0;sketch=0;" vertex="1" parent="-qspavT7v30yvVSXL8hS-9">
          <mxGeometry width="740" height="102" as="geometry" />
        </mxCell>
        <mxCell id="-qspavT7v30yvVSXL8hS-11" value="&lt;font style=&quot;vertical-align: inherit&quot;&gt;&lt;font style=&quot;vertical-align: inherit&quot;&gt;view&lt;br&gt;表现层&lt;br&gt;&lt;/font&gt;&lt;/font&gt;" style="shape=partialRectangle;html=1;whiteSpace=wrap;connectable=0;overflow=hidden;fillColor=none;top=0;left=0;bottom=0;right=0;pointerEvents=1;rounded=0;sketch=0;" vertex="1" parent="-qspavT7v30yvVSXL8hS-10">
          <mxGeometry width="245" height="102" as="geometry">
            <mxRectangle width="245" height="102" as="alternateBounds" />
          </mxGeometry>
        </mxCell>
        <mxCell id="-qspavT7v30yvVSXL8hS-12" value="&lt;font style=&quot;vertical-align: inherit&quot;&gt;&lt;font style=&quot;vertical-align: inherit&quot;&gt;Execution&lt;br&gt;执行层&lt;br&gt;&lt;/font&gt;&lt;/font&gt;" style="shape=partialRectangle;html=1;whiteSpace=wrap;connectable=0;overflow=hidden;fillColor=none;top=0;left=0;bottom=0;right=0;pointerEvents=1;rounded=0;sketch=0;" vertex="1" parent="-qspavT7v30yvVSXL8hS-10">
          <mxGeometry x="245" width="250" height="102" as="geometry">
            <mxRectangle width="250" height="102" as="alternateBounds" />
          </mxGeometry>
        </mxCell>
        <mxCell id="-qspavT7v30yvVSXL8hS-13" value="&lt;font style=&quot;vertical-align: inherit&quot;&gt;&lt;font style=&quot;vertical-align: inherit&quot;&gt;ProcessingReport&lt;br&gt;报告处理层&lt;br&gt;&lt;/font&gt;&lt;/font&gt;" style="shape=partialRectangle;html=1;whiteSpace=wrap;connectable=0;overflow=hidden;fillColor=none;top=0;left=0;bottom=0;right=0;pointerEvents=1;rounded=0;sketch=0;" vertex="1" parent="-qspavT7v30yvVSXL8hS-10">
          <mxGeometry x="495" width="245" height="102" as="geometry">
            <mxRectangle width="245" height="102" as="alternateBounds" />
          </mxGeometry>
        </mxCell>
        <mxCell id="-qspavT7v30yvVSXL8hS-14" value="" style="shape=tableRow;horizontal=0;startSize=0;swimlaneHead=0;swimlaneBody=0;top=0;left=0;bottom=0;right=0;collapsible=0;dropTarget=0;fillColor=none;points=[[0,0.5],[1,0.5]];portConstraint=eastwest;rounded=0;sketch=0;" vertex="1" parent="-qspavT7v30yvVSXL8hS-9">
          <mxGeometry y="102" width="740" height="318" as="geometry" />
        </mxCell>
        <mxCell id="-qspavT7v30yvVSXL8hS-15" value="" style="shape=partialRectangle;html=1;whiteSpace=wrap;connectable=0;overflow=hidden;fillColor=none;top=0;left=0;bottom=0;right=0;pointerEvents=1;rounded=0;sketch=0;" vertex="1" parent="-qspavT7v30yvVSXL8hS-14">
          <mxGeometry width="245" height="318" as="geometry">
            <mxRectangle width="245" height="318" as="alternateBounds" />
          </mxGeometry>
        </mxCell>
        <mxCell id="-qspavT7v30yvVSXL8hS-16" value="" style="shape=partialRectangle;html=1;whiteSpace=wrap;connectable=0;overflow=hidden;fillColor=none;top=0;left=0;bottom=0;right=0;pointerEvents=1;rounded=0;sketch=0;" vertex="1" parent="-qspavT7v30yvVSXL8hS-14">
          <mxGeometry x="245" width="250" height="318" as="geometry">
            <mxRectangle width="250" height="318" as="alternateBounds" />
          </mxGeometry>
        </mxCell>
        <mxCell id="-qspavT7v30yvVSXL8hS-17" value="" style="shape=partialRectangle;html=1;whiteSpace=wrap;connectable=0;overflow=hidden;fillColor=none;top=0;left=0;bottom=0;right=0;pointerEvents=1;rounded=0;sketch=0;" vertex="1" parent="-qspavT7v30yvVSXL8hS-14">
          <mxGeometry x="495" width="245" height="318" as="geometry">
            <mxRectangle width="245" height="318" as="alternateBounds" />
          </mxGeometry>
        </mxCell>
      </root>
    </mxGraphModel>
  </diagram>
</mxfile>
